<svg id="Capa_1" data-name="Capa 1" xmlns="http://www.w3.org/2000/svg" viewBox="0 0 324.33 245.48"><defs><style>.cls-1{fill:#4d4d4d;}.cls-2{fill:#fff;}</style></defs><title>logo</title><path class="cls-1" d="M476.64,252.68v41H442.07v3.73q0,12.27,4.71,21.27a32.37,32.37,0,0,0,13.44,13.75,42,42,0,0,0,20.35,4.74,47,47,0,0,0,20.75-4.35,32.09,32.09,0,0,0,13.83-12.43A35.33,35.33,0,0,0,520,301.76V235.13A44.86,44.86,0,0,0,515.23,214a34,34,0,0,0-13.52-14.13,40.08,40.08,0,0,0-20.19-5,43.22,43.22,0,0,0-15.17,2.72,36.49,36.49,0,0,0-12.73,7.92,29.74,29.74,0,0,0-7.78,12.34H399.32A85.68,85.68,0,0,1,415,182.64a78.18,78.18,0,0,1,28.84-23.53,85.91,85.91,0,0,1,37.72-8.31q24.83,0,43.69,10.48a72.49,72.49,0,0,1,29.15,29.59q10.3,19.11,10.3,44.26v66.63q0,23.78-10.45,41.78a71,71,0,0,1-29.55,27.88q-19.09,9.87-44.09,9.86-24.82,0-43.69-10.48a72.36,72.36,0,0,1-29.15-29.66q-10.31-19.18-10.3-44.35V252.68Z" transform="translate(-397.43 -135.8)"/><path class="cls-1" d="M609.69,334.74l-17-2.81a178.24,178.24,0,0,1-31.85-8.25,130.71,130.71,0,0,1-26.66-13.07l21.63-30.29a115.8,115.8,0,0,0,33,14.27,147.51,147.51,0,0,0,38.49,5q22.82,0,35.43-6.1t12.6-17.22v-.14a15,15,0,0,0-5.62-12.33,36.22,36.22,0,0,0-14.65-6.7A219.32,219.32,0,0,0,632,253.24a3.76,3.76,0,0,0-.94-.14,3.64,3.64,0,0,1-.93-.13l-3.75-.4q-24.87-3.09-41.22-7.71a61.72,61.72,0,0,1-27.76-16.22Q546,217,546,195.73v-.14q0-18.9,10.73-32.3t31.17-20.45q20.43-7,49.39-7a158.42,158.42,0,0,1,27.17,2.42,176.82,176.82,0,0,1,27.16,7,167.28,167.28,0,0,1,25.21,11l-19.76,31.1a140.69,140.69,0,0,0-29.89-12.06,112.55,112.55,0,0,0-29.89-4.29q-21.46,0-33.21,5.56t-11.76,15.62v.13q0,8.44,6.14,13.34a39.35,39.35,0,0,0,15.15,7.17q9,2.28,25.38,4.83a12.74,12.74,0,0,0,1.36.2c.46.05.91.11,1.37.2.68.09,1.33.2,2,.34s1.27.24,2,.33q23.49,3.61,39.25,8.78a60.69,60.69,0,0,1,26.32,16.63q10.56,11.46,10.56,31.3v.27q0,18.63-11.07,31.9t-32.28,20.24q-21.2,7-51,7Z" transform="translate(-397.43 -135.8)"/><polygon class="cls-2" points="319.37 20.39 127.41 98.2 0 155.19 127.41 109.96 319.37 20.39"/></svg>